<?xml version="1.0" encoding="UTF-8"?>
<svg width="34px" height="34px" viewBox="0 0 34 34" version="1.1" xmlns="http://www.w3.org/2000/svg"
    xmlns:xlink="http://www.w3.org/1999/xlink">
    <title>moon</title>
    <desc>Created with Sketch.</desc>
    <g id="Page-1" stroke="none" stroke-width="1" fill="none" fill-rule="evenodd">
        <g id="dark-mode-toggle" transform="translate(-151.000000, -52.000000)" fill="#26272D" fill-rule="nonzero">
            <g id="moon" transform="translate(155.000000, 56.000000)">
                <path
                    d="M23.5028115,13.006327 C24.3727638,12.3632917 25.5938279,13.051459 25.4942791,14.1286783 C24.8852825,20.7186391 19.2540469,25.6972479 12.6391283,25.4939934 C6.02420978,25.2907389 0.709261073,19.9757902 0.506006583,13.3608717 C0.302752094,6.74595308 5.28136089,1.11471752 11.8713217,0.505720923 C12.948541,0.406172092 13.6367083,1.62723617 12.993673,2.49718846 C10.7827412,5.488323 11.0928571,9.64689484 13.7229811,12.2770189 C16.3531052,14.9071429 20.511677,15.2172588 23.5028115,13.006327 Z M11.9518683,14.0481317 C9.14481837,11.2410817 8.31974539,7.12828273 9.61412494,3.5532454 C5.63011187,4.99261626 2.87373927,8.86376608 3.00955672,13.2839459 C3.17216031,18.5758807 7.42411928,22.8278397 12.7160541,22.9904433 C17.1362339,23.1262607 21.0073837,20.3698881 22.4467546,16.3858751 C18.8717173,17.6802546 14.7589183,16.8551816 11.9518683,14.0481317 Z"
                    id="Path"></path>
            </g>
        </g>
    </g>
</svg>