<?xml version="1.0" encoding="utf-8"?>
<svg version="1.1" id="Layer_1" xmlns="http://www.w3.org/2000/svg" xmlns:xlink="http://www.w3.org/1999/xlink" x="0px"
	y="0px" viewBox="0 0 34 34" style="enable-background:new 0 0 34 34;" xml:space="preserve">
	<style type="text/css">
		.st0 {
			fill: #FFFFFF;
		}
	</style>
	<g id="Page-1">
		<g id="Artboard" transform="translate(-1143.000000, -55.000000)">
			<g id="sun" transform="translate(1143.000000, 55.000000)">
				<path id="Oval" class="st0" d="M16.5,25c4.7,0,8.5-3.8,8.5-8.5S21.2,8,16.5,8S8,11.8,8,16.5S11.8,25,16.5,25z M16.5,22.2
				c-3.1,0-5.7-2.5-5.7-5.7s2.5-5.7,5.7-5.7s5.7,2.5,5.7,5.7S19.6,22.2,16.5,22.2z" />
				<path id="Path" class="st0" d="M15,1.5v3C15,5.3,15.7,6,16.5,6C17.3,6,18,5.3,18,4.5v-3C18,0.7,17.3,0,16.5,0
				C15.7,0,15,0.7,15,1.5z" />
				<path id="Path_00000132061177752113389460000009101766658082696364_" class="st0" d="M15,29.5v3c0,0.8,0.7,1.5,1.5,1.5
				c0.8,0,1.5-0.7,1.5-1.5v-3c0-0.8-0.7-1.5-1.5-1.5C15.7,28,15,28.7,15,29.5z" />
				<path id="Path_00000130605585868008358650000016705217722662843527_" class="st0" d="M4.4,6.5l2.1,2.1c0.6,0.6,1.5,0.6,2.1,0
				s0.6-1.5,0-2.1L6.5,4.4C5.9,3.9,5,3.9,4.4,4.4S3.9,5.9,4.4,6.5z" />
				<path id="Path_00000164507079385959079520000005023079138858291634_" class="st0" d="M25.4,27.5l2.1,2.1c0.6,0.6,1.5,0.6,2.1,0
				c0.6-0.6,0.6-1.5,0-2.1l-2.1-2.1c-0.6-0.6-1.5-0.6-2.1,0C24.9,26,24.9,26.9,25.4,27.5z" />
				<path id="Path_00000105390564739508653430000004731029774867540154_" class="st0" d="M1.5,18h3C5.3,18,6,17.3,6,16.5
				C6,15.7,5.3,15,4.5,15h-3C0.7,15,0,15.7,0,16.5C0,17.3,0.7,18,1.5,18z" />
				<path id="Path_00000073702110192862312420000015466808744087908766_" class="st0" d="M29.5,18h3c0.8,0,1.5-0.7,1.5-1.5
				c0-0.8-0.7-1.5-1.5-1.5h-3c-0.8,0-1.5,0.7-1.5,1.5C28,17.3,28.7,18,29.5,18z" />
				<path id="Path_00000093149267485482680560000009539291637017048503_" class="st0" d="M6.5,29.6l2.1-2.1c0.6-0.6,0.6-1.5,0-2.1
				c-0.6-0.6-1.5-0.6-2.1,0l-2.1,2.1c-0.6,0.6-0.6,1.5,0,2.1C5,30.1,5.9,30.1,6.5,29.6z" />
				<path id="Path_00000100362666694300116050000002630078432150947989_" class="st0" d="M27.5,8.6l2.1-2.1c0.6-0.6,0.6-1.5,0-2.1
				c-0.6-0.6-1.5-0.6-2.1,0l-2.1,2.1c-0.6,0.6-0.6,1.5,0,2.1C26,9.1,26.9,9.1,27.5,8.6z" />
			</g>
		</g>
	</g>
</svg>