<?xml version="1.0" encoding="utf-8"?>
<svg version="1.1" id="Layer_1" xmlns="http://www.w3.org/2000/svg" xmlns:xlink="http://www.w3.org/1999/xlink" x="0px"
	y="0px" viewBox="0 0 515 450" style="enable-background:new 0 0 515 450;" xml:space="preserve">
	<style type="text/css">
		.st0 {
			fill: #FFFFFF;
		}
	</style>
	<symbol id="icon-train" viewBox="-8 -7 16 14">
		<path class="st0" d="M5,0.5v-1.3C5-1.5,4.5-2,3.9-2H3v-3l1-2H0l1,2v3h-5v-2h-4v9h1c0,1.1,0.9,2,2,2s2-0.9,2-2c0,1.1,0.9,2,2,2
		s2-0.9,2-2c0,1.1,0.9,2,2,2s2-0.9,2-2h3L5,0.5L5,0.5z M-5,6c-0.6,0-1-0.4-1-1s0.4-1,1-1s1,0.4,1,1S-4.4,6-5,6z M-1,6
		c-0.6,0-1-0.4-1-1s0.4-1,1-1s1,0.4,1,1S-0.4,6-1,6z M3,6C2.4,6,2,5.6,2,5s0.4-1,1-1s1,0.4,1,1S3.6,6,3,6z" />
	</symbol>
	<g>
		<defs>
			<rect id="SVGID_1_" x="0.4" width="514.3" height="450" />
		</defs>
		<clipPath id="SVGID_00000129904437633961746040000011028281456373407901_">
			<use xlink:href="#SVGID_1_" style="overflow:visible;" />
		</clipPath>
		<g style="clip-path:url(#SVGID_00000129904437633961746040000011028281456373407901_);">

			<use xlink:href="#icon-train" width="16" height="14"
				id="XMLID_00000161613336488580626380000011216552726006470802_" x="-8" y="-7"
				transform="matrix(32.1429 0 0 32.1429 257.5 225)" style="overflow:visible;" />
		</g>
	</g>
</svg>